<svg width="132" height="40" viewBox="0 0 132 40" fill="none" xmlns="http://www.w3.org/2000/svg">
<g clip-path="url(#clip0_2004_34945)">
<g clip-path="url(#clip1_2004_34945)">
<path d="M30.6159 9.34674L26.0005 12.0101L22.8372 13.8372L21.3852 14.6735L16.7698 17.3369V17.3467V22.664V27.991V28.0006V33.3274L21.3852 35.991V30.664L26.0005 28.0006L30.6159 25.3369V20.0006V14.6735V9.34674ZM26.0005 17.3369V22.664L21.3852 25.3369V20.0006L26.0005 17.3369Z" fill="#605A8C"/>
<path d="M21.3852 4.01013L16.7698 6.67352V6.68336L13.8468 8.36583L12.1544 9.34675L7.53906 12.0101V17.3369V17.3467V22.6735V27.9911V28.0006L12.1544 30.664V25.3274V20.0006V14.6735L16.7698 12.0101L21.3852 9.34675V9.3369L26.0006 6.67352L21.3852 4.01013Z" fill="#605A8C"/>
<mask id="mask0_2004_34945" style="mask-type:alpha" maskUnits="userSpaceOnUse" x="20" y="11" width="11" height="23">
<rect width="12.3077" height="15.3846" transform="matrix(0.859406 -0.511293 0 1 20.043 18.278)" fill="#D9D9D9"/>
</mask>
<g mask="url(#mask0_2004_34945)">
<rect x="35.4248" y="4.10382" width="3.2265" height="26.1" transform="rotate(29.625 35.4248 4.10382)" fill="#F29F05"/>
<rect x="28.0391" y="23.4016" width="5.67391" height="9.67951" transform="rotate(119.625 28.0391 23.4016)" fill="#F29F05"/>
</g>
<mask id="mask1_2004_34945" style="mask-type:alpha" maskUnits="userSpaceOnUse" x="20" y="7" width="19" height="27">
<rect width="21.3546" height="15.3846" transform="matrix(0.859406 -0.511293 0 1 20.043 18.2472)" fill="#D9D9D9"/>
</mask>
<g mask="url(#mask1_2004_34945)">
<path d="M35.4248 4.07306L38.2295 5.66799L25.3278 28.3562L22.523 26.7612L35.4248 4.07306Z" fill="#F29F05"/>
<path d="M28.0391 23.3708L25.2343 28.303L16.8201 23.5182L19.6249 18.586L28.0391 23.3708Z" fill="#F29F05"/>
</g>
</g>
<path d="M45.5925 6.99036C45.1845 6.99036 44.8193 7.071 44.4967 7.23228C44.1837 7.39355 43.918 7.62598 43.6998 7.92956C43.4816 8.22365 43.3156 8.58414 43.2018 9.01105C43.0974 9.43795 43.0453 9.91703 43.0453 10.4483C43.0453 11.1693 43.1306 11.7859 43.3014 12.2982C43.4816 12.801 43.7615 13.1852 44.141 13.4509C44.5204 13.7165 45.0043 13.8493 45.5925 13.8493C46.0099 13.8493 46.4225 13.8019 46.8305 13.707C47.2479 13.6121 47.6985 13.4793 48.1823 13.3086V15.1158C47.7365 15.296 47.2953 15.4288 46.8589 15.5142C46.4225 15.5996 45.934 15.6423 45.3932 15.6423C44.3497 15.6423 43.4864 15.4288 42.8033 15.0019C42.1298 14.5656 41.6317 13.9584 41.3092 13.1805C40.9866 12.3931 40.8253 11.4776 40.8253 10.4341C40.8253 9.66564 40.9297 8.96361 41.1384 8.328C41.3471 7.6829 41.6507 7.12792 42.0491 6.66307C42.4571 6.19822 42.9551 5.83772 43.5433 5.58158C44.141 5.32544 44.824 5.19737 45.5925 5.19737C46.0953 5.19737 46.5981 5.26377 47.1008 5.39659C47.6131 5.51992 48.1017 5.69068 48.5666 5.90887L47.8693 7.65918C47.4898 7.47893 47.1056 7.3224 46.7166 7.18959C46.3372 7.05677 45.9624 6.99036 45.5925 6.99036ZM44.5252 24.3397C45.8344 24.3397 46.7878 24.6243 47.3855 25.1935C47.9926 25.7532 48.2962 26.5264 48.2962 27.513C48.2962 27.9589 48.2298 28.3858 48.097 28.7937C47.9641 29.1922 47.7412 29.5526 47.4281 29.8752C47.1246 30.1883 46.7214 30.4349 46.2186 30.6152C45.7158 30.7954 45.0944 30.8855 44.3544 30.8855H43.4295V34.5H41.2807V24.3397H44.5252ZM44.4113 26.1042H43.4295V29.121H44.141C44.5489 29.121 44.8999 29.0688 45.194 28.9645C45.4881 28.8601 45.7158 28.6941 45.8771 28.4664C46.0383 28.2387 46.119 27.9446 46.119 27.5841C46.119 27.0813 45.9814 26.7114 45.7063 26.4742C45.4312 26.2275 44.9995 26.1042 44.4113 26.1042Z" fill="#F29F05"/>
<path d="M60.1317 10.4056C60.1317 11.193 60.0321 11.9093 59.8328 12.5544C59.6431 13.19 59.349 13.7402 58.9506 14.2051C58.5616 14.6699 58.0588 15.0257 57.4422 15.2723C56.835 15.519 56.1188 15.6423 55.2934 15.6423C54.4681 15.6423 53.7471 15.519 53.1304 15.2723C52.5233 15.0162 52.0205 14.6604 51.622 14.2051C51.2331 13.7402 50.939 13.1852 50.7398 12.5401C50.55 11.895 50.4552 11.1788 50.4552 10.3914C50.4552 9.33834 50.6259 8.42287 50.9674 7.64495C51.3185 6.86704 51.8497 6.26463 52.5612 5.83772C53.2822 5.40133 54.1977 5.18314 55.3076 5.18314C56.4081 5.18314 57.3141 5.40133 58.0256 5.83772C58.7371 6.26463 59.2636 6.87178 59.6052 7.65918C59.9562 8.4371 60.1317 9.35257 60.1317 10.4056ZM52.7178 10.4056C52.7178 11.1171 52.8079 11.729 52.9881 12.2413C53.1684 12.7536 53.4482 13.1473 53.8277 13.4224C54.2072 13.6975 54.6958 13.8351 55.2934 13.8351C55.9101 13.8351 56.4034 13.6975 56.7734 13.4224C57.1528 13.1473 57.4279 12.7536 57.5987 12.2413C57.779 11.729 57.8691 11.1171 57.8691 10.4056C57.8691 9.3336 57.6699 8.49402 57.2714 7.88687C56.873 7.27971 56.2184 6.97613 55.3076 6.97613C54.7005 6.97613 54.2072 7.11369 53.8277 7.38881C53.4482 7.66393 53.1684 8.05763 52.9881 8.56991C52.8079 9.0822 52.7178 9.6941 52.7178 10.4056ZM67.103 15.5L64.6554 7.53111H64.5985C64.608 7.72085 64.6222 8.00545 64.6412 8.38492C64.6602 8.76439 64.6791 9.17232 64.6981 9.60871C64.7171 10.0356 64.7266 10.4246 64.7266 10.7756V15.5H62.8055V5.33967H65.7369L68.1418 13.1093H68.1845L70.7317 5.33967H73.6631V15.5H71.6567V10.6902C71.6567 10.3677 71.6614 9.99767 71.6709 9.58025C71.6899 9.16284 71.7041 8.76914 71.7136 8.39915C71.7325 8.01968 71.7468 7.73508 71.7563 7.54534H71.6993L69.081 15.5H67.103ZM80.0433 5.33967C81.3525 5.33967 82.3059 5.62427 82.9036 6.19348C83.5107 6.7532 83.8143 7.52637 83.8143 8.51299C83.8143 8.95887 83.7479 9.38578 83.6151 9.79371C83.4823 10.1922 83.2593 10.5526 82.9463 10.8752C82.6427 11.1883 82.2395 11.4349 81.7367 11.6152C81.2339 11.7954 80.6125 11.8855 79.8726 11.8855H78.9476V15.5H76.7989V5.33967H80.0433ZM79.9295 7.10421H78.9476V10.121H79.6591C80.067 10.121 80.4181 10.0688 80.7121 9.96447C81.0062 9.86011 81.2339 9.6941 81.3952 9.46641C81.5565 9.23873 81.6371 8.94464 81.6371 8.58414C81.6371 8.08134 81.4995 7.71136 81.2244 7.47419C80.9493 7.22753 80.5177 7.10421 79.9295 7.10421ZM94.5713 11.914C94.5713 12.616 94.4148 13.2516 94.1017 13.8208C93.7981 14.3806 93.3333 14.8264 92.7072 15.1585C92.0905 15.481 91.3079 15.6423 90.3592 15.6423C89.0121 15.6423 87.9875 15.3008 87.2855 14.6177C86.5835 13.9252 86.2324 13.0145 86.2324 11.8855V5.33967H88.3812V11.5582C88.3812 12.3931 88.552 12.9813 88.8935 13.3228C89.235 13.6643 89.7426 13.8351 90.4161 13.8351C90.8905 13.8351 91.2747 13.7544 91.5688 13.5932C91.8628 13.4319 92.0763 13.1805 92.2091 12.839C92.3514 12.4974 92.4226 12.0658 92.4226 11.544V5.33967H94.5713V11.914ZM101.542 15.5H99.3933V7.13267H96.6327V5.33967H104.303V7.13267H101.542V15.5ZM112.287 15.5H106.439V5.33967H112.287V7.10421H108.587V9.33834H112.031V11.1029H108.587V13.7212H112.287V15.5ZM117.931 5.33967C118.851 5.33967 119.61 5.45351 120.207 5.68119C120.805 5.89939 121.251 6.23617 121.545 6.69153C121.839 7.13741 121.986 7.70187 121.986 8.38492C121.986 8.84977 121.896 9.2577 121.716 9.60871C121.545 9.95024 121.313 10.2443 121.019 10.491C120.734 10.7282 120.426 10.9226 120.094 11.0744L123.082 15.5H120.691L118.272 11.6009H117.119V15.5H114.971V5.33967H117.931ZM117.774 7.10421H117.119V9.85063H117.817C118.291 9.85063 118.675 9.79845 118.969 9.6941C119.263 9.58974 119.477 9.43321 119.61 9.2245C119.743 9.0063 119.809 8.74542 119.809 8.44184C119.809 8.11929 119.733 7.86315 119.581 7.67341C119.439 7.47419 119.216 7.33189 118.912 7.24651C118.618 7.15164 118.239 7.10421 117.774 7.10421ZM57.004 34.5L56.2641 32.0809H52.5642L51.8243 34.5H49.5047L53.0907 24.297H55.7233L59.3236 34.5H57.004ZM55.0118 27.9114C54.9644 27.7502 54.9027 27.5462 54.8268 27.2995C54.7509 27.0529 54.675 26.8015 54.5991 26.5453C54.5232 26.2892 54.4616 26.0663 54.4141 25.8765C54.3667 26.0663 54.3003 26.3034 54.2149 26.588C54.139 26.8631 54.0631 27.1288 53.9872 27.3849C53.9208 27.6316 53.8687 27.8071 53.8307 27.9114L53.105 30.2736H55.7518L55.0118 27.9114ZM64.1395 24.3397C65.0597 24.3397 65.8186 24.4535 66.4163 24.6812C67.014 24.8994 67.4598 25.2362 67.7539 25.6915C68.048 26.1374 68.1951 26.7019 68.1951 27.3849C68.1951 27.8498 68.1049 28.2577 67.9247 28.6087C67.7539 28.9502 67.5215 29.2443 67.2274 29.491C66.9428 29.7282 66.6345 29.9226 66.3024 30.0744L69.2908 34.5H66.9001L64.481 30.6009H63.3283V34.5H61.1796V24.3397H64.1395ZM63.9829 26.1042H63.3283V28.8506H64.0256C64.5 28.8506 64.8842 28.7984 65.1783 28.6941C65.4724 28.5897 65.6858 28.4332 65.8186 28.2245C65.9514 28.0063 66.0178 27.7454 66.0178 27.4418C66.0178 27.1193 65.9419 26.8631 65.7902 26.6734C65.6479 26.4742 65.4249 26.3319 65.1213 26.2465C64.8273 26.1516 64.4478 26.1042 63.9829 26.1042ZM75.0562 34.5H72.9075V26.1327H70.1468V24.3397H77.8169V26.1327H75.0562V34.5ZM88.9605 34.5H86.2283L81.8028 26.8157H81.7458C81.7553 27.0529 81.7648 27.2948 81.7743 27.5415C81.7838 27.7786 81.7933 28.0205 81.8028 28.2672C81.8217 28.5044 81.836 28.7463 81.8454 28.9929C81.8549 29.2301 81.8644 29.472 81.8739 29.7187V34.5H79.9528V24.3397H82.6708L87.0821 31.9528H87.1248C87.1154 31.7156 87.1059 31.4832 87.0964 31.2555C87.0869 31.0184 87.0774 30.7859 87.0679 30.5582C87.0679 30.3211 87.0632 30.0887 87.0537 29.861C87.0442 29.6238 87.0347 29.3866 87.0252 29.1495V24.3397H88.9605V34.5ZM97.9465 34.5H92.0979V24.3397H97.9465V26.1042H94.2467V28.3383H97.6904V30.1029H94.2467V32.7212H97.9465V34.5ZM103.59 24.3397C104.51 24.3397 105.269 24.4535 105.867 24.6812C106.464 24.8994 106.91 25.2362 107.204 25.6915C107.498 26.1374 107.645 26.7019 107.645 27.3849C107.645 27.8498 107.555 28.2577 107.375 28.6087C107.204 28.9502 106.972 29.2443 106.678 29.491C106.393 29.7282 106.085 29.9226 105.753 30.0744L108.741 34.5H106.35L103.931 30.6009H102.779V34.5H100.63V24.3397H103.59ZM103.433 26.1042H102.779V28.8506H103.476C103.95 28.8506 104.335 28.7984 104.629 28.6941C104.923 28.5897 105.136 28.4332 105.269 28.2245C105.402 28.0063 105.468 27.7454 105.468 27.4418C105.468 27.1193 105.392 26.8631 105.24 26.6734C105.098 26.4742 104.875 26.3319 104.572 26.2465C104.278 26.1516 103.898 26.1042 103.433 26.1042Z" fill="#464074"/>
</g>
<defs>
<clipPath id="clip0_2004_34945">
<rect width="132" height="40" fill="white"/>
</clipPath>
<clipPath id="clip1_2004_34945">
<rect width="40" height="40" fill="white" transform="translate(-0.249023)"/>
</clipPath>
</defs>
</svg>
