<svg width="210" height="40" viewBox="0 0 210 40" fill="none" xmlns="http://www.w3.org/2000/svg">
<g clip-path="url(#clip0_1312_4111)">
<path d="M48.9833 14.7211H58.0713V15.8571H48.9833V14.7211ZM48.9993 12.7211H59.1753V17.8571H48.9993V16.5611H57.2713V14.0011H48.9993V12.7211ZM52.5353 13.4251H54.3753V17.9051C54.3753 18.4971 54.5513 18.5931 55.5273 18.5931C55.9753 18.5931 57.9913 18.5931 58.5673 18.5931C59.3673 18.5931 59.5273 18.3371 59.6233 16.9771C60.0233 17.2491 60.7433 17.4891 61.2393 17.5851C61.0153 19.5371 60.4713 20.0491 58.7273 20.0491C58.2153 20.0491 55.8313 20.0491 55.3513 20.0491C53.1433 20.0491 52.5353 19.5851 52.5353 17.9051V13.4251ZM48.0393 12.7211H49.8793V18.5611H48.0393V12.7211ZM47.6553 5.6491H59.5273V7.0571H47.6553V5.6491ZM48.8873 9.4731H52.0553V10.5131H48.8873V9.4731ZM48.5833 11.0731H52.0553V12.1131H48.5833V11.0731ZM55.1113 11.0731H58.6153V12.1131H55.1113V11.0731ZM55.1113 9.4731H58.2473V10.5131H55.1113V9.4731ZM52.6313 6.2091H54.5033V12.2891H52.6313V6.2091ZM46.5673 7.6491H60.6953V10.9291H58.9193V8.9291H48.2633V10.9291H46.5673V7.6491ZM81.5273 13.1051H88.8553V14.8011H81.5273V13.1051ZM84.2313 13.9691L85.4953 14.6091C84.6793 16.4011 83.3353 18.5291 81.9113 19.6331C81.7353 19.0891 81.3353 18.2571 81.0473 17.7451C82.2793 16.8811 83.6073 15.2811 84.2313 13.9691ZM85.9433 14.7691C86.5833 15.1371 88.6313 16.6411 89.1113 17.0411L87.9753 18.6091C87.3513 17.7931 85.8633 16.3051 85.0633 15.5851L85.9433 14.7691ZM91.4313 5.0891L93.1913 5.3931C92.3593 7.0411 91.1593 8.5771 89.3033 9.8251C89.0313 9.4411 88.4713 8.8811 88.0713 8.6411C89.7513 7.6491 90.8553 6.3051 91.4313 5.0891ZM91.7193 6.1771H94.6153V7.6491H90.6793L91.7193 6.1771ZM94.1353 6.1771H94.4713L94.8073 6.1291L96.0073 6.5771C95.0153 10.1931 92.6633 12.1131 89.5913 13.1851C89.3833 12.7691 88.9513 12.1771 88.6153 11.8571C91.2393 11.0731 93.3833 9.2171 94.1353 6.4651V6.1771ZM89.8953 8.8011L91.1753 7.8731C91.8473 8.3051 92.7273 8.9931 93.1593 9.4891L91.7993 10.5131C91.4153 10.0331 90.5833 9.2971 89.8953 8.8011ZM91.9753 11.4731L93.7673 11.7931C92.8553 13.5371 91.4793 15.0731 89.3353 16.2891C89.0953 15.8731 88.5513 15.2811 88.1833 15.0091C90.1193 14.0651 91.3513 12.7211 91.9753 11.4731ZM91.7833 12.7691H94.9673V14.3051H90.6793L91.7833 12.7691ZM94.5353 12.7691H94.8873L95.2233 12.7051L96.4233 13.1371C95.3673 17.1371 92.7593 19.1371 89.1913 20.1451C88.9833 19.6651 88.5513 18.9451 88.2153 18.5771C91.3513 17.8731 93.7353 16.0651 94.5353 13.0411V12.7691ZM89.9433 15.5691L91.2713 14.5771C91.9913 15.0891 92.8873 15.8411 93.3353 16.4011L91.9273 17.4731C91.5433 16.9291 90.6633 16.1131 89.9433 15.5691ZM83.5273 9.6331V10.6091H87.0953V9.6331H83.5273ZM83.5273 7.2491V8.2091H87.0953V7.2491H83.5273ZM81.9593 5.7291H88.7273V12.1291H81.9593V5.7291ZM84.5193 6.4171H86.0073V11.2811H86.1513V20.0971H84.3593V11.2811H84.5193V6.4171Z" fill="#F29F05"/>
<path d="M70.9993 5.0891L72.6633 5.4731C72.1833 6.3851 71.5913 7.3291 71.0633 8.1451C71.7673 9.0571 72.4713 10.1131 72.8233 10.8171L71.2553 11.4891C70.8873 10.5931 70.1193 9.3131 69.2393 8.1611C69.9113 7.1531 70.6153 5.9211 70.9993 5.0891ZM73.7993 5.0891L75.4633 5.4731C74.9673 6.3691 74.3593 7.2811 73.8313 8.0811C74.5673 8.9611 75.3033 9.9851 75.6713 10.6891L74.1353 11.3451C73.7353 10.4811 72.9353 9.2331 72.0073 8.0971C72.6953 7.1051 73.4153 5.9051 73.7993 5.0891ZM76.6793 5.0891L78.4393 5.5051C77.9113 6.4171 77.2873 7.3131 76.7273 8.0971C77.5273 8.9611 78.3433 9.9851 78.7593 10.6731L77.1753 11.4251C76.7273 10.5451 75.8153 9.2811 74.7913 8.1291C75.5113 7.1211 76.2793 5.9051 76.6793 5.0891ZM69.8153 12.0011H78.3433V20.0171H76.5673V13.5531H71.5273V20.0971H69.8153V12.0011ZM70.5833 17.9371H77.3673V19.4891H70.5833V17.9371ZM72.9193 10.7371L75.1433 11.0251C74.7593 11.8571 74.3273 12.6251 74.0073 13.1531L72.3113 12.8171C72.5513 12.1931 72.8073 11.3451 72.9193 10.7371ZM74.8553 13.5051L76.1673 14.1771C75.2873 15.6331 73.9113 17.0091 72.5193 17.9211C72.2793 17.6171 71.8313 17.1531 71.5113 16.8971C72.8553 16.0811 74.1353 14.7531 74.8553 13.5051ZM71.7513 14.8491L72.7593 13.9051C74.0073 14.6571 75.6393 15.8091 76.4393 16.6091L75.3673 17.6971C74.6153 16.8811 73.0153 15.6651 71.7513 14.8491ZM65.3353 5.6331H68.5353V7.3611H65.3353V5.6331ZM65.2233 9.2811H68.1513V11.0251H65.2233V9.2811ZM65.2233 13.0091H68.1673V14.7851H65.2233V13.0091ZM64.5193 5.6331H66.1353V11.4411C66.1353 13.9691 66.0073 17.6811 65.0633 20.0651C64.7433 19.7931 64.0073 19.3931 63.5913 19.2491C64.4553 17.0251 64.5193 13.7931 64.5193 11.4411V5.6331ZM67.3673 5.6331H69.0473V18.0971C69.0473 18.8971 68.9353 19.4251 68.4713 19.7291C67.9913 20.0331 67.3833 20.0811 66.4553 20.0651C66.4073 19.6011 66.1993 18.7851 65.9753 18.3051C66.4553 18.3371 66.9673 18.3371 67.1273 18.3211C67.3033 18.3211 67.3673 18.2571 67.3673 18.0491V5.6331ZM107.735 5.2811H109.671V20.0971H107.735V5.2811ZM104.151 10.1291H113.319V11.9051H104.151V10.1291ZM103.511 14.0651H113.975V15.8411H103.511V14.0651ZM104.103 6.4651L105.719 5.8731C106.279 6.9131 106.855 8.3051 107.047 9.2171L105.319 9.9051C105.159 9.0091 104.631 7.5691 104.103 6.4651ZM111.671 5.7451L113.639 6.4331C113.047 7.6491 112.407 8.9611 111.895 9.8251L110.327 9.2171C110.807 8.2731 111.383 6.8171 111.671 5.7451ZM102.487 5.1051L104.279 5.6811C103.191 8.4011 101.431 11.2651 99.6073 13.0731C99.4473 12.6251 98.9353 11.5691 98.6153 11.1051C100.135 9.6651 101.623 7.3931 102.487 5.1051ZM100.951 9.5371L102.759 7.7131L102.775 7.7291V20.0491H100.951V9.5371Z" fill="#464074"/>
<path d="M51.5925 27.4904C50.7671 27.4904 50.1362 27.7987 49.6998 28.4153C49.2634 29.032 49.0453 29.8763 49.0453 30.9483C49.0453 32.0298 49.2445 32.8694 49.6429 33.467C50.0509 34.0552 50.7007 34.3493 51.5925 34.3493C52.0004 34.3493 52.4131 34.3019 52.8305 34.207C53.2479 34.1121 53.6985 33.9793 54.1823 33.8086V35.6158C53.7365 35.796 53.2953 35.9288 52.8589 36.0142C52.4225 36.0996 51.934 36.1423 51.3932 36.1423C50.3402 36.1423 49.4769 35.9288 48.8033 35.5019C48.1298 35.0656 47.6317 34.4584 47.3092 33.6805C46.9866 32.8931 46.8253 31.9776 46.8253 30.9341C46.8253 29.9095 47.0103 29.0035 47.3803 28.2161C47.7503 27.4287 48.2863 26.8121 48.9883 26.3662C49.6998 25.9203 50.5679 25.6974 51.5925 25.6974C52.0953 25.6974 52.5981 25.7638 53.1008 25.8966C53.6131 26.0199 54.1017 26.1907 54.5666 26.4089L53.8693 28.1592C53.4898 27.9789 53.1056 27.8224 52.7166 27.6896C52.3372 27.5568 51.9624 27.4904 51.5925 27.4904ZM139.139 25.8397C140.448 25.8397 141.402 26.1243 141.999 26.6935C142.606 27.2532 142.91 28.0264 142.91 29.013C142.91 29.6107 142.787 30.1656 142.54 30.6779C142.293 31.1902 141.881 31.6029 141.302 31.9159C140.733 32.229 139.955 32.3855 138.968 32.3855H138.043V36H135.895V25.8397H139.139ZM139.025 27.6042H138.043V30.621H138.755C139.362 30.621 139.841 30.5024 140.192 30.2652C140.553 30.0186 140.733 29.6249 140.733 29.0841C140.733 28.0975 140.164 27.6042 139.025 27.6042Z" fill="#F29F05"/>
<path d="M66.1317 30.9056C66.1317 31.9586 65.9562 32.8789 65.6052 33.6663C65.2636 34.4442 64.7324 35.0513 64.0114 35.4877C63.2999 35.9241 62.3939 36.1423 61.2934 36.1423C60.193 36.1423 59.2822 35.9241 58.5612 35.4877C57.8497 35.0513 57.3185 34.4394 56.9674 33.652C56.6259 32.8646 56.4552 31.9444 56.4552 30.8914C56.4552 29.8383 56.6259 28.9229 56.9674 28.145C57.3185 27.367 57.8497 26.7646 58.5612 26.3377C59.2822 25.9013 60.1977 25.6831 61.3076 25.6831C62.4081 25.6831 63.3141 25.9013 64.0256 26.3377C64.7371 26.7646 65.2636 27.3718 65.6052 28.1592C65.9562 28.9371 66.1317 29.8526 66.1317 30.9056ZM58.7178 30.9056C58.7178 31.9681 58.9217 32.8077 59.3297 33.4243C59.7376 34.0315 60.3922 34.3351 61.2934 34.3351C62.2136 34.3351 62.873 34.0315 63.2714 33.4243C63.6699 32.8077 63.8691 31.9681 63.8691 30.9056C63.8691 29.8431 63.6699 29.0082 63.2714 28.4011C62.873 27.7845 62.2184 27.4761 61.3076 27.4761C60.3969 27.4761 59.7376 27.7845 59.3297 28.4011C58.9217 29.0082 58.7178 29.8431 58.7178 30.9056ZM73.103 36L70.6554 28.0311H70.5985C70.608 28.2208 70.6222 28.5054 70.6412 28.8849C70.6602 29.2644 70.6791 29.6723 70.6981 30.1087C70.7171 30.5451 70.7266 30.9341 70.7266 31.2756V36H68.8055V25.8397H71.7369L74.1418 33.6093H74.1845L76.7317 25.8397H79.6631V36H77.6567V31.1902C77.6567 30.8677 77.6614 30.4977 77.6709 30.0803C77.6899 29.6628 77.7041 29.2691 77.7136 28.8992C77.7325 28.5197 77.7468 28.2351 77.7563 28.0453H77.6993L75.081 36H73.103ZM86.0433 25.8397C87.3525 25.8397 88.3059 26.1243 88.9036 26.6935C89.5107 27.2532 89.8143 28.0264 89.8143 29.013C89.8143 29.6107 89.691 30.1656 89.4443 30.6779C89.1977 31.1902 88.785 31.6029 88.2063 31.9159C87.6371 32.229 86.8592 32.3855 85.8726 32.3855H84.9476V36H82.7989V25.8397H86.0433ZM85.9295 27.6042H84.9476V30.621H85.6591C86.2663 30.621 86.7454 30.5024 87.0964 30.2652C87.4569 30.0186 87.6371 29.6249 87.6371 29.0841C87.6371 28.0975 87.0679 27.6042 85.9295 27.6042ZM100.571 25.8397V32.414C100.571 33.116 100.415 33.7516 100.102 34.3208C99.7981 34.8806 99.3333 35.3264 98.7072 35.6585C98.081 35.981 97.2984 36.1423 96.3592 36.1423C95.0121 36.1423 93.9875 35.8008 93.2855 35.1177C92.5835 34.4252 92.2324 33.5145 92.2324 32.3855V25.8397H94.3812V32.0582C94.3812 32.9026 94.552 33.4955 94.8935 33.837C95.235 34.1691 95.7426 34.3351 96.4161 34.3351C97.1181 34.3351 97.6257 34.1501 97.9387 33.7801C98.2613 33.4101 98.4226 32.8314 98.4226 32.044V25.8397H100.571ZM107.542 36H105.393V27.6327H102.633V25.8397H110.303V27.6327H107.542V36ZM118.287 36H112.439V25.8397H118.287V27.6042H114.587V29.8383H118.031V31.6029H114.587V34.2212H118.287V36ZM123.931 25.8397C125.316 25.8397 126.335 26.0911 126.99 26.5939C127.654 27.0967 127.986 27.8603 127.986 28.8849C127.986 29.3498 127.896 29.7577 127.716 30.1087C127.545 30.4502 127.313 30.7443 127.019 30.991C126.734 31.2282 126.426 31.4226 126.094 31.5744L129.082 36H126.691L124.272 32.1009H123.119V36H120.971V25.8397H123.931ZM123.774 27.6042H123.119V30.3506H123.817C124.528 30.3506 125.036 30.232 125.339 29.9949C125.652 29.7577 125.809 29.4067 125.809 28.9418C125.809 28.458 125.643 28.1165 125.311 27.9173C124.979 27.7086 124.467 27.6042 123.774 27.6042ZM151.618 36L150.878 33.5809H147.178L146.438 36H144.119L147.705 25.797H150.337L153.937 36H151.618ZM150.366 31.7736L149.626 29.4114C149.578 29.2502 149.517 29.0462 149.441 28.7995C149.365 28.5529 149.289 28.3015 149.213 28.0453C149.137 27.7892 149.075 27.5663 149.028 27.3765C148.981 27.5663 148.914 27.8034 148.829 28.088C148.753 28.3631 148.677 28.6288 148.601 28.8849C148.535 29.1316 148.483 29.3071 148.445 29.4114L147.719 31.7736H150.366ZM158.753 25.8397C160.138 25.8397 161.158 26.0911 161.813 26.5939C162.477 27.0967 162.809 27.8603 162.809 28.8849C162.809 29.3498 162.719 29.7577 162.539 30.1087C162.368 30.4502 162.135 30.7443 161.841 30.991C161.557 31.2282 161.248 31.4226 160.916 31.5744L163.905 36H161.514L159.095 32.1009H157.942V36H155.793V25.8397H158.753ZM158.597 27.6042H157.942V30.3506H158.639C159.351 30.3506 159.859 30.232 160.162 29.9949C160.475 29.7577 160.632 29.4067 160.632 28.9418C160.632 28.458 160.466 28.1165 160.134 27.9173C159.802 27.7086 159.289 27.6042 158.597 27.6042ZM169.67 36H167.521V27.6327H164.761V25.8397H172.431V27.6327H169.67V36ZM183.574 36H180.842L176.417 28.3157H176.36C176.379 28.7995 176.398 29.2834 176.417 29.7672C176.445 30.251 176.469 30.7348 176.488 31.2187V36H174.567V25.8397H177.285L181.696 33.4528H181.739C181.72 32.9879 181.701 32.5231 181.682 32.0582C181.663 31.5934 181.649 31.1238 181.639 30.6495V25.8397H183.574V36ZM192.56 36H186.712V25.8397H192.56V27.6042H188.861V29.8383H192.304V31.6029H188.861V34.2212H192.56V36ZM198.204 25.8397C199.589 25.8397 200.609 26.0911 201.263 26.5939C201.927 27.0967 202.259 27.8603 202.259 28.8849C202.259 29.3498 202.169 29.7577 201.989 30.1087C201.818 30.4502 201.586 30.7443 201.292 30.991C201.007 31.2282 200.699 31.4226 200.367 31.5744L203.355 36H200.964L198.545 32.1009H197.393V36H195.244V25.8397H198.204ZM198.047 27.6042H197.393V30.3506H198.09C198.801 30.3506 199.309 30.232 199.612 29.9949C199.926 29.7577 200.082 29.4067 200.082 28.9418C200.082 28.458 199.916 28.1165 199.584 27.9173C199.252 27.7086 198.74 27.6042 198.047 27.6042Z" fill="#464074"/>
<g clip-path="url(#clip1_1312_4111)">
<path d="M30.6159 9.34674L26.0005 12.0101L22.8372 13.8372L21.3852 14.6735L16.7698 17.3369V17.3467V22.664V27.991V28.0006V33.3274L21.3852 35.991V30.664L26.0005 28.0006L30.6159 25.3369V20.0006V14.6735V9.34674ZM26.0005 17.3369V22.664L21.3852 25.3369V20.0006L26.0005 17.3369Z" fill="#605A8C"/>
<path d="M21.3852 4.01013L16.7698 6.67352V6.68336L13.8468 8.36583L12.1544 9.34675L7.53906 12.0101V17.3369V17.3467V22.6735V27.9911V28.0006L12.1544 30.664V25.3274V20.0006V14.6735L16.7698 12.0101L21.3852 9.34675V9.33691L26.0006 6.67352L21.3852 4.01013Z" fill="#605A8C"/>
<mask id="mask0_1312_4111" style="mask-type:alpha" maskUnits="userSpaceOnUse" x="20" y="11" width="11" height="23">
<rect width="12.3077" height="15.3846" transform="matrix(0.859406 -0.511293 0 1 20.043 18.278)" fill="#D9D9D9"/>
</mask>
<g mask="url(#mask0_1312_4111)">
<rect x="35.4248" y="4.10382" width="3.2265" height="26.1" transform="rotate(29.625 35.4248 4.10382)" fill="#F29F05"/>
<rect x="28.0391" y="23.4016" width="5.67391" height="9.67951" transform="rotate(119.625 28.0391 23.4016)" fill="#F29F05"/>
</g>
<mask id="mask1_1312_4111" style="mask-type:alpha" maskUnits="userSpaceOnUse" x="20" y="7" width="19" height="27">
<rect width="21.3546" height="15.3846" transform="matrix(0.859406 -0.511293 0 1 20.043 18.2472)" fill="#D9D9D9"/>
</mask>
<g mask="url(#mask1_1312_4111)">
<path d="M35.4248 4.07306L38.2295 5.66799L25.3278 28.3562L22.523 26.7612L35.4248 4.07306Z" fill="#F29F05"/>
<path d="M28.0391 23.3708L25.2343 28.303L16.8201 23.5182L19.6249 18.586L28.0391 23.3708Z" fill="#F29F05"/>
</g>
</g>
</g>
<defs>
<clipPath id="clip0_1312_4111">
<rect width="210" height="40" fill="white"/>
</clipPath>
<clipPath id="clip1_1312_4111">
<rect width="40" height="40" fill="white" transform="translate(-0.249023)"/>
</clipPath>
</defs>
</svg>
