<svg width="40" height="40" viewBox="0 0 40 40" fill="none" xmlns="http://www.w3.org/2000/svg">
<g clip-path="url(#clip0_1823_14325)">
<path fill-rule="evenodd" clip-rule="evenodd" d="M5 11.3577C4.55797 11.3577 4.13405 11.5333 3.82149 11.8459C3.50893 12.1585 3.33333 12.5824 3.33333 13.0244V26.3577C3.33333 26.7998 3.50893 27.2237 3.82149 27.5363C4.13405 27.8488 4.55797 28.0244 5 28.0244H8.33333C9.25381 28.0244 10 28.7706 10 29.6911C10 30.6116 9.25381 31.3577 8.33333 31.3577H5C3.67392 31.3577 2.40215 30.831 1.46447 29.8933C0.526785 28.9556 0 27.6838 0 26.3577V13.0244C0 11.6983 0.526784 10.4266 1.46447 9.48888C2.40215 8.5512 3.67392 8.02441 5 8.02441H10.3167C11.2371 8.02441 11.9833 8.77061 11.9833 9.69108C11.9833 10.6116 11.2371 11.3577 10.3167 11.3577H5ZM23.3333 9.69108C23.3333 8.77061 24.0795 8.02441 25 8.02441H28.3333C29.6594 8.02441 30.9312 8.5512 31.8689 9.48888C32.8065 10.4266 33.3333 11.6983 33.3333 13.0244V26.3577C33.3333 27.6838 32.8065 28.9556 31.8689 29.8933C30.9312 30.831 29.6594 31.3577 28.3333 31.3577H23.0167C22.0962 31.3577 21.35 30.6116 21.35 29.6911C21.35 28.7706 22.0962 28.0244 23.0167 28.0244H28.3333C28.7754 28.0244 29.1993 27.8488 29.5118 27.5363C29.8244 27.2237 30 26.7998 30 26.3577V13.0244C30 12.5824 29.8244 12.1585 29.5118 11.8459C29.1993 11.5333 28.7754 11.3577 28.3333 11.3577H25C24.0795 11.3577 23.3333 10.6116 23.3333 9.69108Z" fill="black"/>
<path fill-rule="evenodd" clip-rule="evenodd" d="M38.3334 16.3582C39.2539 16.3582 40.0001 17.1043 40.0001 18.0248V21.3582C40.0001 22.2786 39.2539 23.0248 38.3334 23.0248C37.4129 23.0248 36.6667 22.2786 36.6667 21.3582V18.0248C36.6667 17.1043 37.4129 16.3582 38.3334 16.3582Z" fill="black"/>
<path fill-rule="evenodd" clip-rule="evenodd" d="M19.2578 8.30451C20.0237 8.81509 20.2306 9.84988 19.72 10.6158L14.7808 18.0246H21.6666C22.2813 18.0246 22.846 18.3629 23.1361 18.9048C23.4261 19.4468 23.3943 20.1043 23.0534 20.6158L16.3867 30.6158C15.8761 31.3816 14.8413 31.5886 14.0754 31.078C13.3096 30.5674 13.1026 29.5326 13.6132 28.7668L18.5524 21.3579H11.6666C11.0519 21.3579 10.4872 21.0196 10.1972 20.4777C9.90712 19.9358 9.93891 19.2782 10.2799 18.7668L16.9465 8.76676C17.4571 8.00088 18.4919 7.79392 19.2578 8.30451Z" fill="black"/>
</g>
<defs>
<clipPath id="clip0_1823_14325">
<rect width="40" height="40" fill="white"/>
</clipPath>
</defs>
</svg>
