<svg width="40" height="41" viewBox="0 0 40 41" fill="none" xmlns="http://www.w3.org/2000/svg">
<g clip-path="url(#clip0_1823_14303)">
<path d="M10.827 35.2473H29.5408C31.4635 35.2473 32.9065 34.7732 33.8697 33.823C34.831 32.8728 35.3127 31.4541 35.3127 29.5669V10.6888C35.3127 8.80154 34.831 7.37912 33.8697 6.42336C32.9065 5.4676 31.4635 4.98971 29.5408 4.98971H10.827C8.90237 4.98971 7.4594 5.46386 6.49804 6.41402C5.53482 7.36418 5.05508 8.78847 5.05508 10.6888V29.5669C5.05508 31.4541 5.53482 32.8728 6.49804 33.823C7.4594 34.7732 8.90237 35.2473 10.827 35.2473ZM10.8643 32.2886C9.94401 32.2886 9.24026 32.0459 8.74932 31.5624C8.25837 31.0771 8.01381 30.3584 8.01381 29.4026V10.8531C8.01381 9.89729 8.25837 9.1749 8.74932 8.68395C9.24026 8.19487 9.94401 7.95032 10.8643 7.95032H29.4848C30.392 7.95032 31.0958 8.19487 31.5998 8.68395C32.1019 9.1749 32.3521 9.89729 32.3521 10.8531V29.4026C32.3521 30.3584 32.1019 31.0771 31.5998 31.5624C31.0958 32.0459 30.392 32.2886 29.4848 32.2886H10.8643ZM14.1721 28.3535H26.1937C26.8938 28.3535 27.4389 28.1557 27.8309 27.7562C28.2229 27.3586 28.4189 26.8153 28.4189 26.1303V14.1254C28.4189 13.4273 28.2229 12.8822 27.8309 12.4902C27.4389 12.0981 26.8938 11.9021 26.1937 11.9021H14.1721C13.474 11.9021 12.9289 12.0981 12.5369 12.4902C12.1449 12.8822 11.9488 13.4273 11.9488 14.1254V26.1303C11.9488 26.8153 12.1449 27.3586 12.5369 27.7562C12.9289 28.1557 13.474 28.3535 14.1721 28.3535ZM15.1652 25.9455C14.6257 25.9455 14.3569 25.6822 14.3569 25.1558V15.0998C14.3569 14.5734 14.6257 14.3102 15.1652 14.3102H25.2025C25.742 14.3102 26.0108 14.5734 26.0108 15.0998V25.1558C26.0108 25.6822 25.742 25.9455 25.2025 25.9455H15.1652ZM12.6097 7.95032H15.5703V1.79203C15.5703 1.34962 15.4321 0.994936 15.1559 0.724262C14.8796 0.455455 14.5212 0.321045 14.0806 0.321045C13.6401 0.321045 13.2835 0.455455 13.0147 0.724262C12.7441 0.994936 12.6097 1.34962 12.6097 1.79203V7.95032ZM18.6952 7.95032H21.6539V1.79203C21.6539 1.34962 21.5195 0.994936 21.2488 0.724262C20.98 0.455455 20.6254 0.321045 20.183 0.321045C19.7424 0.321045 19.384 0.455455 19.1077 0.724262C18.8314 0.994936 18.6952 1.34962 18.6952 1.79203V7.95032ZM24.7975 7.95032H27.7562V1.79203C27.7562 1.34962 27.6199 0.994936 27.3437 0.724262C27.0674 0.455455 26.709 0.321045 26.2684 0.321045C25.826 0.321045 25.4713 0.455455 25.2025 0.724262C24.9319 0.994936 24.7975 1.34962 24.7975 1.79203V7.95032ZM32.3521 12.5275V15.4863H38.5104C38.9528 15.4863 39.3112 15.3481 39.5856 15.0718C39.8619 14.7974 40 14.439 40 13.9966C40 13.5561 39.8619 13.2014 39.5856 12.9307C39.3112 12.6619 38.9528 12.5275 38.5104 12.5275H32.3521ZM32.3521 18.6112V21.5718H38.5104C38.9528 21.5718 39.3112 21.4355 39.5856 21.1667C39.8619 20.8979 40 20.5413 40 20.1008C40 19.6583 39.8619 19.3 39.5856 19.0255C39.3112 18.7493 38.9528 18.6112 38.5104 18.6112H32.3521ZM32.3521 24.7153V27.674H38.5104C38.9528 27.674 39.3112 27.5359 39.5856 27.2596C39.8619 26.9852 40 26.6268 40 26.1844C40 25.7438 39.8619 25.3892 39.5856 25.1185C39.3112 24.8497 38.9528 24.7153 38.5104 24.7153H32.3521ZM27.7935 32.2886H24.8348V38.4655C24.8348 38.9061 24.9729 39.2608 25.2473 39.5314C25.5236 39.8003 25.882 39.9346 26.3226 39.9346C26.765 39.9346 27.1197 39.8003 27.3903 39.5314C27.6591 39.2608 27.7935 38.9061 27.7935 38.4655V32.2886ZM21.6539 32.2886H18.6952V38.4655C18.6952 38.9061 18.8314 39.2608 19.1077 39.5314C19.384 39.8003 19.7424 39.9346 20.183 39.9346C20.6254 39.9346 20.98 39.8003 21.2488 39.5314C21.5195 39.2608 21.6539 38.9061 21.6539 38.4655V32.2886ZM15.5703 32.2886H12.6097V38.4655C12.6097 38.9061 12.7441 39.2608 13.0147 39.5314C13.2835 39.8003 13.6401 39.9346 14.0806 39.9346C14.5212 39.9346 14.8796 39.8003 15.1559 39.5314C15.4321 39.2608 15.5703 38.9061 15.5703 38.4655V32.2886ZM8.01381 27.6927V24.7321H1.46911C1.02857 24.7321 0.673891 24.8683 0.403217 25.1371C0.13441 25.406 0 25.7625 0 26.2031C0 26.6455 0.13441 27.0039 0.403217 27.2783C0.673891 27.5545 1.02857 27.6927 1.46911 27.6927H8.01381ZM8.01381 21.5885V18.6298H1.46911C1.02857 18.6298 0.673891 18.768 0.403217 19.0442C0.13441 19.3186 0 19.677 0 20.1194C0 20.56 0.13441 20.9147 0.403217 21.1854C0.673891 21.4542 1.02857 21.5885 1.46911 21.5885H8.01381ZM8.01381 15.5049V12.5443H1.46911C1.02857 12.5443 0.673891 12.6806 0.403217 12.9494C0.13441 13.22 0 13.5748 0 14.0153C0 14.4577 0.13441 14.8161 0.403217 15.0905C0.673891 15.3668 1.02857 15.5049 1.46911 15.5049H8.01381Z" fill="black"/>
</g>
<defs>
<clipPath id="clip0_1823_14303">
<rect width="40" height="40" fill="white" transform="translate(0 0.12793)"/>
</clipPath>
</defs>
</svg>
