<svg width="40" height="41" viewBox="0 0 40 41" fill="none" xmlns="http://www.w3.org/2000/svg">
<g clip-path="url(#clip0_1823_14300)">
<path d="M10.827 34.9507H29.5408C31.4635 34.9507 32.9065 34.4765 33.8697 33.5264C34.831 32.5762 35.3127 31.1575 35.3127 29.2703V10.3922C35.3127 8.5049 34.831 7.08249 33.8697 6.12673C32.9065 5.17097 31.4635 4.69308 29.5408 4.69308H10.827C8.90237 4.69308 7.4594 5.16723 6.49804 6.11739C5.53482 7.06755 5.05508 8.49184 5.05508 10.3922V29.2703C5.05508 31.1575 5.53482 32.5762 6.49804 33.5264C7.4594 34.4765 8.90237 34.9507 10.827 34.9507ZM10.8643 31.9919C9.94401 31.9919 9.24026 31.7493 8.74932 31.2658C8.25837 30.7804 8.01381 30.0617 8.01381 29.106V10.5564C8.01381 9.60066 8.25837 8.87827 8.74932 8.38732C9.24026 7.89824 9.94401 7.65369 10.8643 7.65369H29.4848C30.392 7.65369 31.0958 7.89824 31.5998 8.38732C32.1019 8.87827 32.3521 9.60066 32.3521 10.5564V29.106C32.3521 30.0617 32.1019 30.7804 31.5998 31.2658C31.0958 31.7493 30.392 31.9919 29.4848 31.9919H10.8643ZM12.6097 7.65369H15.5703V1.4954C15.5703 1.05299 15.4321 0.698305 15.1559 0.427631C14.8796 0.158824 14.5212 0.0244141 14.0806 0.0244141C13.6401 0.0244141 13.2835 0.158824 13.0147 0.427631C12.7441 0.698305 12.6097 1.05299 12.6097 1.4954V7.65369ZM18.6952 7.65369H21.6539V1.4954C21.6539 1.05299 21.5195 0.698305 21.2488 0.427631C20.98 0.158824 20.6254 0.0244141 20.183 0.0244141C19.7424 0.0244141 19.384 0.158824 19.1077 0.427631C18.8314 0.698305 18.6952 1.05299 18.6952 1.4954V7.65369ZM24.7975 7.65369H27.7562V1.4954C27.7562 1.05299 27.6199 0.698305 27.3437 0.427631C27.0674 0.158824 26.709 0.0244141 26.2684 0.0244141C25.826 0.0244141 25.4713 0.158824 25.2025 0.427631C24.9319 0.698305 24.7975 1.05299 24.7975 1.4954V7.65369ZM32.3521 12.2309V15.1896H38.5104C38.9528 15.1896 39.3112 15.0515 39.5856 14.7752C39.8619 14.5008 40 14.1424 40 13.7C40 13.2594 39.8619 12.9048 39.5856 12.6341C39.3112 12.3653 38.9528 12.2309 38.5104 12.2309H32.3521ZM32.3521 18.3145V21.2751H38.5104C38.9528 21.2751 39.3112 21.1388 39.5856 20.87C39.8619 20.6012 40 20.2447 40 19.8041C40 19.3617 39.8619 19.0033 39.5856 18.7289C39.3112 18.4526 38.9528 18.3145 38.5104 18.3145H32.3521ZM32.3521 24.4187V27.3774H38.5104C38.9528 27.3774 39.3112 27.2393 39.5856 26.963C39.8619 26.6886 40 26.3302 40 25.8877C40 25.4472 39.8619 25.0926 39.5856 24.8219C39.3112 24.5531 38.9528 24.4187 38.5104 24.4187H32.3521ZM27.7935 31.9919H24.8348V38.1689C24.8348 38.6094 24.9729 38.9641 25.2473 39.2348C25.5236 39.5036 25.882 39.638 26.3226 39.638C26.765 39.638 27.1197 39.5036 27.3903 39.2348C27.6591 38.9641 27.7935 38.6094 27.7935 38.1689V31.9919ZM21.6539 31.9919H18.6952V38.1689C18.6952 38.6094 18.8314 38.9641 19.1077 39.2348C19.384 39.5036 19.7424 39.638 20.183 39.638C20.6254 39.638 20.98 39.5036 21.2488 39.2348C21.5195 38.9641 21.6539 38.6094 21.6539 38.1689V31.9919ZM15.5703 31.9919H12.6097V38.1689C12.6097 38.6094 12.7441 38.9641 13.0147 39.2348C13.2835 39.5036 13.6401 39.638 14.0806 39.638C14.5212 39.638 14.8796 39.5036 15.1559 39.2348C15.4321 38.9641 15.5703 38.6094 15.5703 38.1689V31.9919ZM8.01381 27.3961V24.4355H1.46911C1.02857 24.4355 0.673891 24.5717 0.403217 24.8405C0.13441 25.1093 0 25.4659 0 25.9064C0 26.3488 0.13441 26.7072 0.403217 26.9816C0.673891 27.2579 1.02857 27.3961 1.46911 27.3961H8.01381ZM8.01381 21.2919V18.3332H1.46911C1.02857 18.3332 0.673891 18.4713 0.403217 18.7476C0.13441 19.022 0 19.3804 0 19.8228C0 20.2633 0.13441 20.6181 0.403217 20.8887C0.673891 21.1575 1.02857 21.2919 1.46911 21.2919H8.01381ZM8.01381 15.2083V12.2477H1.46911C1.02857 12.2477 0.673891 12.3839 0.403217 12.6527C0.13441 12.9234 0 13.2781 0 13.7187C0 14.1611 0.13441 14.5195 0.403217 14.7939C0.673891 15.0701 1.02857 15.2083 1.46911 15.2083H8.01381Z" fill="black"/>
<path fill-rule="evenodd" clip-rule="evenodd" d="M12.818 14.4244C11.9133 14.4244 11.1484 14.5914 10.5467 14.9516C9.90681 15.3312 9.60002 15.9521 9.60002 16.7454V22.5035C9.60002 23.2587 9.88098 23.8649 10.4653 24.267C11.0284 24.6546 11.8332 24.8245 12.8308 24.8245C13.7663 24.8245 14.5514 24.6629 15.1614 24.3126C15.8242 23.9278 16.1509 23.304 16.1509 22.5035V21.3874C16.1509 20.6249 15.9787 20 15.5501 19.6071C15.1308 19.2226 14.4918 19.0664 13.7119 19.0664H12.7286C12.5278 19.0664 12.3587 19.1653 12.2599 19.3371C12.1763 19.4825 12.154 19.6596 12.154 19.8274C12.154 19.9952 12.1763 20.1723 12.2599 20.3176C12.3587 20.4894 12.5278 20.5884 12.7286 20.5884H13.7119C13.9202 20.5884 14.0739 20.6082 14.1817 20.6392C14.2899 20.6704 14.3302 20.7064 14.3436 20.7231L14.3497 20.7303C14.4185 20.8107 14.4908 21.0015 14.4908 21.3874V22.6303C14.4908 22.7414 14.4644 22.8241 14.421 22.8904C14.3766 22.9583 14.3023 23.0273 14.1791 23.0902C13.9233 23.2205 13.4991 23.3025 12.8691 23.3025C12.2434 23.3025 11.8228 23.2205 11.5694 23.0906C11.4474 23.028 11.3737 22.9591 11.3296 22.8912C11.2865 22.8248 11.2601 22.7418 11.2601 22.6303V16.6186C11.2601 16.5043 11.286 16.4191 11.3276 16.352C11.3698 16.284 11.4391 16.2165 11.5526 16.1554C11.7892 16.0281 12.1851 15.9464 12.7797 15.9464C13.3742 15.9464 13.7701 16.0281 14.0068 16.1554C14.1203 16.2165 14.1896 16.284 14.2317 16.352C14.2733 16.4191 14.2993 16.5043 14.2993 16.6186V17.443C14.2993 17.6541 14.4033 17.8317 14.5871 17.9366C14.7443 18.0264 14.9389 18.0518 15.1293 18.0518C15.3197 18.0518 15.5143 18.0264 15.6715 17.9366C15.8553 17.8317 15.9593 17.6541 15.9593 17.443V16.7454C15.9593 15.9942 15.6889 15.3884 15.1202 14.9846C14.5713 14.5948 13.7871 14.4244 12.818 14.4244ZM20.053 14.4244C19.1816 14.4244 18.4471 14.5917 17.8769 14.9559C17.2636 15.3387 16.9755 15.9596 16.9755 16.7454V24.0889C16.9755 24.3 17.0795 24.4775 17.2633 24.5825C17.4205 24.6723 17.6152 24.6976 17.8055 24.6976C17.9959 24.6976 18.1906 24.6723 18.3478 24.5825C18.5316 24.4775 18.6356 24.3 18.6356 24.0889V20.9815C18.725 21.0473 18.8342 21.083 18.9548 21.083H20.0658C20.9367 21.083 21.6705 20.9202 22.2402 20.5653L22.2435 20.5632C22.8548 20.1722 23.1433 19.5487 23.1433 18.762V16.7454C23.1433 15.9577 22.8494 15.337 22.2281 14.9552C21.658 14.5915 20.9239 14.4244 20.053 14.4244ZM18.9548 19.561C18.8342 19.561 18.725 19.5967 18.6356 19.6625V16.6186C18.6356 16.4031 18.7185 16.2604 18.9093 16.1517C19.1268 16.0278 19.4942 15.9464 20.053 15.9464C20.6163 15.9464 20.9873 16.0279 21.2071 16.1522C21.4003 16.2614 21.4832 16.4043 21.4832 16.6186V18.8888C21.4832 19.1043 21.4003 19.247 21.2095 19.3557C20.992 19.4796 20.6246 19.561 20.0658 19.561H18.9548ZM24.6665 14.5513C24.4795 14.5513 24.2867 14.5768 24.1308 14.6682C23.9485 14.7749 23.8492 14.9528 23.8492 15.1601V22.5035C23.8492 23.2587 24.1302 23.8649 24.7145 24.267C25.2776 24.6546 26.0824 24.8245 27.0799 24.8245C28.0155 24.8245 28.8006 24.6629 29.4106 24.3126C30.0734 23.9278 30.4001 23.304 30.4001 22.5035V15.1601C30.4001 14.9489 30.2961 14.7714 30.1123 14.6664C29.9551 14.5766 29.7604 14.5513 29.57 14.5513C29.3796 14.5513 29.185 14.5766 29.0278 14.6664C28.844 14.7714 28.74 14.9489 28.74 15.1601V22.6303C28.74 22.7414 28.7136 22.8241 28.6702 22.8904C28.6258 22.9583 28.5515 23.0274 28.4282 23.0902C28.1725 23.2205 27.7483 23.3025 27.1182 23.3025C26.4926 23.3025 26.072 23.2205 25.8186 23.0906C25.6966 23.028 25.6229 22.9591 25.5788 22.8912C25.5356 22.8248 25.5093 22.7412 25.5093 22.6298L25.4965 15.1601C25.4965 14.9489 25.3925 14.7714 25.2087 14.6664C25.0515 14.5766 24.8569 14.5513 24.6665 14.5513Z" fill="black"/>
</g>
<defs>
<clipPath id="clip0_1823_14300">
<rect width="40" height="40" fill="white" transform="translate(0 0.0244141)"/>
</clipPath>
</defs>
</svg>
