<svg width="40" height="41" viewBox="0 0 40 41" fill="none" xmlns="http://www.w3.org/2000/svg">
<path d="M9.5 10.703C9.01875 10.703 8.625 11.1048 8.625 11.5958V20.636C8.90391 20.5635 9.19922 20.5244 9.5 20.5244H30.5C30.8008 20.5244 31.0961 20.5635 31.375 20.636V11.5958C31.375 11.1048 30.9813 10.703 30.5 10.703H9.5ZM8.625 24.0958V29.453C8.625 29.9441 9.01875 30.3458 9.5 30.3458H30.5C30.9813 30.3458 31.375 29.9441 31.375 29.453V24.0958C31.375 23.6048 30.9813 23.203 30.5 23.203H9.5C9.01875 23.203 8.625 23.6048 8.625 24.0958ZM6 24.0958V11.5958C6 9.62598 7.56953 8.02441 9.5 8.02441H30.5C32.4305 8.02441 34 9.62598 34 11.5958V24.0958V29.453C34 31.4229 32.4305 33.0244 30.5 33.0244H9.5C7.56953 33.0244 6 31.4229 6 29.453V24.0958ZM21.3125 26.7744C21.3125 26.4192 21.4508 26.0786 21.6969 25.8274C21.9431 25.5762 22.2769 25.4351 22.625 25.4351C22.9731 25.4351 23.3069 25.5762 23.5531 25.8274C23.7992 26.0786 23.9375 26.4192 23.9375 26.7744C23.9375 27.1296 23.7992 27.4703 23.5531 27.7214C23.3069 27.9726 22.9731 28.1137 22.625 28.1137C22.2769 28.1137 21.9431 27.9726 21.6969 27.7214C21.4508 27.4703 21.3125 27.1296 21.3125 26.7744ZM27.875 25.4351C28.2231 25.4351 28.5569 25.5762 28.8031 25.8274C29.0492 26.0786 29.1875 26.4192 29.1875 26.7744C29.1875 27.1296 29.0492 27.4703 28.8031 27.7214C28.5569 27.9726 28.2231 28.1137 27.875 28.1137C27.5269 28.1137 27.1931 27.9726 26.9469 27.7214C26.7008 27.4703 26.5625 27.1296 26.5625 26.7744C26.5625 26.4192 26.7008 26.0786 26.9469 25.8274C27.1931 25.5762 27.5269 25.4351 27.875 25.4351Z" fill="black"/>
</svg>
