<svg width="40" height="41" viewBox="0 0 40 41" fill="none" xmlns="http://www.w3.org/2000/svg">
<g clip-path="url(#clip0_1823_14306)">
<path d="M5.86113 32.6985H34.1392C36.0935 32.6985 37.5586 32.2171 38.5348 31.2523C39.5129 30.2875 40 28.8413 40 26.9136V13.3421C40 11.4145 39.5129 9.96822 38.5348 9.00344C37.5586 8.03865 36.0935 7.5572 34.1392 7.5572H5.86113C3.90748 7.5572 2.44211 8.03865 1.46538 9.00344C0.488462 9.96822 0 11.4145 0 13.3421V26.9136C0 28.8413 0.488462 30.2875 1.46538 31.2523C2.44211 32.2171 3.90748 32.6985 5.86113 32.6985ZM5.89847 29.6943C4.96515 29.6943 4.24961 29.4478 3.75187 28.9569C3.25412 28.466 3.00525 27.7343 3.00525 26.7638V13.4919C3.00525 12.5214 3.25412 11.7898 3.75187 11.2988C4.24961 10.8079 4.96515 10.5615 5.89847 10.5615H34.1032C35.0225 10.5615 35.7352 10.8079 36.2394 11.2988C36.7436 11.7898 36.9957 12.5214 36.9957 13.4919V26.7638C36.9957 27.7343 36.7436 28.466 36.2394 28.9569C35.7352 29.4478 35.0225 29.6943 34.1032 29.6943H5.89847ZM6.43981 5.00024H9.44487V1.82728C9.44487 1.37806 9.30498 1.01408 9.02502 0.733551C8.74506 0.454919 8.38095 0.314697 7.93306 0.314697C7.48497 0.314697 7.12426 0.454919 6.85036 0.733551C6.57666 1.01408 6.43981 1.37806 6.43981 1.82728V5.00024ZM12.4689 5.00024H15.4747V1.82728C15.4747 1.37806 15.3344 1.01408 15.0539 0.733551C14.7734 0.454919 14.4095 0.314697 13.9621 0.314697C13.514 0.314697 13.1531 0.454919 12.8794 0.733551C12.6057 1.01408 12.4689 1.37806 12.4689 1.82728V5.00024ZM18.4979 5.00024H21.5022V1.82728C21.5022 1.37806 21.3639 1.01408 21.0833 0.733551C20.8028 0.454919 20.4389 0.314697 19.9916 0.314697C19.5423 0.314697 19.1822 0.454919 18.9093 0.733551C18.6344 1.01408 18.4979 1.37806 18.4979 1.82728V5.00024ZM24.5274 5.00024H27.5317V1.82728C27.5317 1.37806 27.3952 1.01408 27.1223 0.733551C26.8474 0.454919 26.4873 0.314697 26.0381 0.314697C25.5907 0.314697 25.2268 0.454919 24.9463 0.733551C24.6677 1.01408 24.5274 1.37806 24.5274 1.82728V5.00024ZM30.5568 5.00024H33.5611V1.82728C33.5611 1.37806 33.4247 1.01408 33.1498 0.733551C32.8769 0.454919 32.5167 0.314697 32.0675 0.314697C31.6202 0.314697 31.2563 0.454919 30.9757 0.733551C30.6952 1.01408 30.5568 1.37806 30.5568 1.82728V5.00024ZM6.43981 35.2574V38.4304C6.43981 38.8777 6.57666 39.2417 6.85036 39.5222C7.12426 39.8027 7.48497 39.9411 7.93306 39.9411C8.38095 39.9411 8.74506 39.8027 9.02502 39.5222C9.30498 39.2417 9.44487 38.8777 9.44487 38.4304V35.2574H6.43981ZM12.4689 35.2574V38.4304C12.4689 38.8777 12.6057 39.2417 12.8794 39.5222C13.1531 39.8027 13.514 39.9411 13.9621 39.9411C14.4095 39.9411 14.7734 39.8027 15.0539 39.5222C15.3344 39.2417 15.4747 38.8777 15.4747 38.4304V35.2574H12.4689ZM18.4979 35.2574V38.4304C18.4979 38.8777 18.6344 39.2417 18.9093 39.5222C19.1822 39.8027 19.5423 39.9411 19.9916 39.9411C20.4389 39.9411 20.8028 39.8027 21.0833 39.5222C21.3639 39.2417 21.5022 38.8777 21.5022 38.4304V35.2574H18.4979ZM24.5274 35.2574V38.4304C24.5274 38.8777 24.6677 39.2417 24.9463 39.5222C25.2268 39.8027 25.5907 39.9411 26.0381 39.9411C26.4873 39.9411 26.8474 39.8027 27.1223 39.5222C27.3952 39.2417 27.5317 38.8777 27.5317 38.4304V35.2574H24.5274ZM30.5568 35.2574V38.4304C30.5568 38.8777 30.6952 39.2417 30.9757 39.5222C31.2563 39.8027 31.6202 39.9411 32.0675 39.9411C32.5167 39.9411 32.8769 39.8027 33.1498 39.5222C33.4247 39.2417 33.5611 38.8777 33.5611 38.4304V35.2574H30.5568Z" fill="black"/>
</g>
<defs>
<clipPath id="clip0_1823_14306">
<rect width="40" height="40" fill="white" transform="translate(0 0.12793)"/>
</clipPath>
</defs>
</svg>
