<svg width="40" height="41" viewBox="0 0 40 41" fill="none" xmlns="http://www.w3.org/2000/svg">
<path d="M11.9664 36.1316H28.0336C28.3967 36.1316 28.7038 36.0063 28.9547 35.7541C29.2057 35.5036 29.3313 35.2027 29.3313 34.8497C29.3313 34.4869 29.2057 34.1763 28.9547 33.9209C28.7038 33.6639 28.3967 33.537 28.0336 33.537H11.9664C11.614 33.537 11.3097 33.6639 11.0533 33.9209C10.7969 34.1763 10.6689 34.4869 10.6689 34.8497C10.6689 35.2027 10.7969 35.5036 11.0533 35.7541C11.3097 36.0063 11.614 36.1316 11.9664 36.1316ZM4.11702 30.7163H35.8991C37.266 30.7163 38.2913 30.3812 38.9747 29.7077C39.6582 29.0343 40 27.9997 40 26.6007V8.24171C40 6.84274 39.6582 5.80653 38.9747 5.1347C38.2913 4.46124 37.266 4.12451 35.8991 4.12451H4.11702C2.7501 4.12451 1.72219 4.46124 1.03328 5.1347C0.344537 5.80653 0 6.84274 0 8.24171V26.6007C0 27.9997 0.344537 29.0343 1.03328 29.7077C1.72219 30.3812 2.7501 30.7163 4.11702 30.7163ZM4.16502 28.138C3.60966 28.138 3.20656 28.0143 2.95556 27.7687C2.70472 27.523 2.57913 27.118 2.57913 26.5519V8.27427C2.57913 7.71794 2.70472 7.31775 2.95556 7.07212C3.20656 6.82649 3.60966 6.70446 4.16502 6.70446H35.8509C36.3957 6.70446 36.7934 6.82649 37.0444 7.07212C37.2954 7.31775 37.4209 7.71794 37.4209 8.27427V26.5519C37.4209 27.118 37.2954 27.523 37.0444 27.7687C36.7934 28.0143 36.3957 28.138 35.8509 28.138H4.16502Z" fill="black"/>
</svg>
