<svg width="405" height="275" viewBox="0 0 405 275" fill="none" xmlns="http://www.w3.org/2000/svg">
<path fill-rule="evenodd" clip-rule="evenodd" d="M206.331 9.37292C225.871 6.18064 245.238 -2.13877 264.548 2.23282C284.948 6.85093 300.531 22.1985 317.43 34.5237C338.564 49.938 362.877 62.114 376.913 84.1874C392.74 109.077 410.891 139.642 402.195 167.826C393.331 196.552 360.223 210.669 333.587 224.604C311.917 235.941 285.984 232.479 262.943 240.677C242.684 247.886 227.423 265.695 206.331 269.883C183.577 274.402 155.59 280.365 137.746 265.541C118.594 249.631 131.809 214.396 116.194 195.004C100.467 175.472 68.8836 176.549 51.52 158.456C29.2301 135.231 -8.65122 106.786 2.5724 76.615C14.679 44.0705 64.4937 47.9976 97.0763 35.9938C116.612 28.7965 136.379 24.7959 156.606 19.8672C173.274 15.806 189.401 12.1389 206.331 9.37292Z" fill="#D9D9D9"/>
</svg>
