<svg width="26" height="26" viewBox="0 0 26 26" fill="none" xmlns="http://www.w3.org/2000/svg">
<g clip-path="url(#clip0_2048_16453)">
<path fill-rule="evenodd" clip-rule="evenodd" d="M3.68661 7.63484C3.41034 7.63484 3.14539 7.74459 2.95004 7.93994C2.75469 8.13529 2.64494 8.40024 2.64494 8.67651V17.0098C2.64494 17.2861 2.75469 17.551 2.95004 17.7464C3.14539 17.9417 3.41034 18.0515 3.68661 18.0515H5.76994C6.34523 18.0515 6.8116 18.5179 6.8116 19.0932C6.8116 19.6684 6.34523 20.1348 5.76994 20.1348H3.68661C2.85781 20.1348 2.06295 19.8056 1.4769 19.2195C0.890855 18.6335 0.561615 17.8386 0.561615 17.0098V8.67651C0.561615 7.84771 0.890854 7.05285 1.4769 6.4668C2.06295 5.88075 2.85781 5.55151 3.68661 5.55151H7.00952C7.58481 5.55151 8.05118 6.01788 8.05118 6.59318C8.05118 7.16847 7.58481 7.63484 7.00952 7.63484H3.68661ZM15.1449 6.59318C15.1449 6.01788 15.6113 5.55151 16.1866 5.55151H18.2699C19.0987 5.55151 19.8936 5.88075 20.4796 6.4668C21.0657 7.05285 21.3949 7.84771 21.3949 8.67651V17.0098C21.3949 17.8386 21.0657 18.6335 20.4796 19.2195C19.8936 19.8056 19.0987 20.1348 18.2699 20.1348H14.947C14.3717 20.1348 13.9053 19.6684 13.9053 19.0932C13.9053 18.5179 14.3717 18.0515 14.947 18.0515H18.2699C18.5462 18.0515 18.8111 17.9417 19.0065 17.7464C19.2018 17.551 19.3116 17.2861 19.3116 17.0098V8.67651C19.3116 8.40024 19.2018 8.13529 19.0065 7.93994C18.8111 7.74459 18.5462 7.63484 18.2699 7.63484H16.1866C15.6113 7.63484 15.1449 7.16847 15.1449 6.59318Z" fill="white" fill-opacity="0.8"/>
<path fill-rule="evenodd" clip-rule="evenodd" d="M24.5199 10.76C25.0952 10.76 25.5616 11.2264 25.5616 11.8017V13.885C25.5616 14.4603 25.0952 14.9267 24.5199 14.9267C23.9446 14.9267 23.4782 14.4603 23.4782 13.885V11.8017C23.4782 11.2264 23.9446 10.76 24.5199 10.76Z" fill="white" fill-opacity="0.8"/>
<path fill-rule="evenodd" clip-rule="evenodd" d="M12.5977 5.72657C13.0763 6.04569 13.2057 6.69243 12.8866 7.1711L9.79956 11.8016H14.1032C14.4873 11.8016 14.8403 12.0131 15.0216 12.3518C15.2029 12.6905 15.183 13.1014 14.9699 13.4211L10.8032 19.6711C10.4841 20.1497 9.83738 20.2791 9.35871 19.96C8.88003 19.6409 8.75068 18.9941 9.0698 18.5155L12.1568 13.8849H7.85319C7.46903 13.8849 7.11605 13.6735 6.93478 13.3348C6.75351 12.9961 6.77338 12.5851 6.98647 12.2655L11.1531 6.01548C11.4722 5.5368 12.119 5.40746 12.5977 5.72657Z" fill="white" fill-opacity="0.8"/>
</g>
<defs>
<clipPath id="clip0_2048_16453">
<rect width="25" height="25" fill="white" transform="translate(0.561615 0.536133)"/>
</clipPath>
</defs>
</svg>
