<svg width="25" height="25" viewBox="0 0 25 25" fill="none" xmlns="http://www.w3.org/2000/svg"><path
  d="M6.76683 22.0296H18.463C19.6647 22.0296 20.5665 21.7332 21.1685 21.1394C21.7694 20.5455 22.0704 19.6588 22.0704 18.4793V6.68051C22.0704 5.50098 21.7694 4.61197 21.1685 4.01462C20.5665 3.41728 19.6647 3.1186 18.463 3.1186H6.76683C5.56397 3.1186 4.66212 3.41494 4.06127 4.00878C3.45925 4.60263 3.15942 5.49281 3.15942 6.68051V18.4793C3.15942 19.6588 3.45925 20.5455 4.06127 21.1394C4.66212 21.7332 5.56397 22.0296 6.76683 22.0296ZM6.79017 20.1804C6.21499 20.1804 5.77515 20.0287 5.46831 19.7265C5.16147 19.4232 5.00862 18.974 5.00862 18.3766V6.78317C5.00862 6.18583 5.16147 5.73433 5.46831 5.42749C5.77515 5.12182 6.21499 4.96897 6.79017 4.96897H18.4279C18.995 4.96897 19.4348 5.12182 19.7498 5.42749C20.0637 5.73433 20.22 6.18583 20.22 6.78317V18.3766C20.22 18.974 20.0637 19.4232 19.7498 19.7265C19.4348 20.0287 18.995 20.1804 18.4279 20.1804H6.79017ZM8.85756 17.721H16.3711C16.8086 17.721 17.1493 17.5973 17.3943 17.3476C17.6393 17.0991 17.7618 16.7596 17.7618 16.3314V8.8284C17.7618 8.39205 17.6393 8.05137 17.3943 7.80636C17.1493 7.56136 16.8086 7.43885 16.3711 7.43885H8.85756C8.42122 7.43885 8.08053 7.56136 7.83553 7.80636C7.59052 8.05137 7.46802 8.39205 7.46802 8.8284V16.3314C7.46802 16.7596 7.59052 17.0991 7.83553 17.3476C8.08053 17.5973 8.42122 17.721 8.85756 17.721ZM9.47824 16.2159C9.14106 16.2159 8.97306 16.0514 8.97306 15.7224V9.43742C8.97306 9.10841 9.14106 8.9439 9.47824 8.9439H15.7516C16.0887 8.9439 16.2567 9.10841 16.2567 9.43742V15.7224C16.2567 16.0514 16.0887 16.2159 15.7516 16.2159H9.47824ZM7.88103 4.96897H9.73141V1.12005C9.73141 0.843544 9.64507 0.621864 9.4724 0.452694C9.29973 0.28469 9.07572 0.200684 8.80038 0.200684C8.52504 0.200684 8.3022 0.28469 8.1342 0.452694C7.96503 0.621864 7.88103 0.843544 7.88103 1.12005V4.96897ZM11.6844 4.96897H13.5337V1.12005C13.5337 0.843544 13.4497 0.621864 13.2805 0.452694C13.1125 0.28469 12.8908 0.200684 12.6143 0.200684C12.339 0.200684 12.115 0.28469 11.9423 0.452694C11.7696 0.621864 11.6844 0.843544 11.6844 1.12005V4.96897ZM15.4984 4.96897H17.3476V1.12005C17.3476 0.843544 17.2624 0.621864 17.0898 0.452694C16.9171 0.28469 16.6931 0.200684 16.4177 0.200684C16.1412 0.200684 15.9196 0.28469 15.7516 0.452694C15.5824 0.621864 15.4984 0.843544 15.4984 1.12005V4.96897ZM20.22 7.82972V9.67892H24.0689C24.3454 9.67892 24.5694 9.59257 24.7409 9.4199C24.9136 9.24839 25 9.0244 25 8.74789C25 8.47255 24.9136 8.2509 24.7409 8.08173C24.5694 7.91373 24.3454 7.82972 24.0689 7.82972H20.22ZM20.22 11.632V13.4824H24.0689C24.3454 13.4824 24.5694 13.3972 24.7409 13.2292C24.9136 13.0612 25 12.8383 25 12.563C25 12.2865 24.9136 12.0625 24.7409 11.891C24.5694 11.7183 24.3454 11.632 24.0689 11.632H20.22ZM20.22 15.4471V17.2963H24.0689C24.3454 17.2963 24.5694 17.2099 24.7409 17.0373C24.9136 16.8658 25 16.6417 25 16.3652C25 16.0899 24.9136 15.8682 24.7409 15.6991C24.5694 15.5311 24.3454 15.4471 24.0689 15.4471H20.22ZM17.3709 20.1804H15.5217V24.0409C15.5217 24.3163 15.6081 24.538 15.7796 24.7071C15.9522 24.8751 16.1762 24.9591 16.4516 24.9591C16.7281 24.9591 16.9497 24.8751 17.1189 24.7071C17.2869 24.538 17.3709 24.3163 17.3709 24.0409V20.1804ZM13.5337 20.1804H11.6844V24.0409C11.6844 24.3163 11.7696 24.538 11.9423 24.7071C12.115 24.8751 12.339 24.9591 12.6143 24.9591C12.8908 24.9591 13.1125 24.8751 13.2805 24.7071C13.4497 24.538 13.5337 24.3163 13.5337 24.0409V20.1804ZM9.73141 20.1804H7.88103V24.0409C7.88103 24.3163 7.96503 24.538 8.1342 24.7071C8.3022 24.8751 8.52504 24.9591 8.80038 24.9591C9.07572 24.9591 9.29973 24.8751 9.4724 24.7071C9.64507 24.538 9.73141 24.3163 9.73141 24.0409V20.1804ZM5.00862 17.3079V15.4576H0.918192C0.642852 15.4576 0.421181 15.5427 0.25201 15.7107C0.084006 15.8787 0 16.1016 0 16.3769C0 16.6534 0.084006 16.8774 0.25201 17.0489C0.421181 17.2216 0.642852 17.3079 0.918192 17.3079H5.00862ZM5.00862 13.4928V11.6436H0.918192C0.642852 11.6436 0.421181 11.73 0.25201 11.9026C0.084006 12.0742 0 12.2981 0 12.5747C0 12.85 0.084006 13.0717 0.25201 13.2409C0.421181 13.4089 0.642852 13.4928 0.918192 13.4928H5.00862ZM5.00862 9.6906V7.84022H0.918192C0.642852 7.84022 0.421181 7.92537 0.25201 8.09337C0.084006 8.26254 0 8.48423 0 8.75957C0 9.03608 0.084006 9.26007 0.25201 9.43158C0.421181 9.60425 0.642852 9.6906 0.918192 9.6906H5.00862Z"
  fill="white" fill-opacity="0.8" />
</svg>