<svg width="25" height="25" viewBox="0 0 25 25" fill="none" xmlns="http://www.w3.org/2000/svg">
  <path
    d="M6.4823 21.2338H18.0403C19.2278 21.2338 20.1189 20.941 20.7138 20.3542C21.3076 19.7673 21.605 18.8911 21.605 17.7255V6.06611C21.605 4.90052 21.3076 4.02201 20.7138 3.43172C20.1189 2.84143 19.2278 2.54628 18.0403 2.54628H6.4823C5.29365 2.54628 4.40245 2.83912 3.8087 3.42595C3.2138 4.01279 2.9175 4.89245 2.9175 6.06611V17.7255C2.9175 18.8911 3.2138 19.7673 3.8087 20.3542C4.40245 20.941 5.29365 21.2338 6.4823 21.2338ZM6.50536 19.4065C5.93698 19.4065 5.50234 19.2566 5.19912 18.958C4.8959 18.6582 4.74486 18.2143 4.74486 17.624V6.16757C4.74486 5.57728 4.8959 5.13111 5.19912 4.8279C5.50234 4.52584 5.93698 4.3748 6.50536 4.3748H18.0056C18.566 4.3748 19.0006 4.52584 19.3119 4.8279C19.622 5.13111 19.7765 5.57728 19.7765 6.16757V17.624C19.7765 18.2143 19.622 18.6582 19.3119 18.958C19.0006 19.2566 18.566 19.4065 18.0056 19.4065H6.50536ZM7.58333 4.3748H9.41185V0.571347C9.41185 0.298107 9.32653 0.0790468 9.1559 -0.0881254C8.98527 -0.254145 8.76391 -0.337158 8.49182 -0.337158C8.21974 -0.337158 7.99953 -0.254145 7.83351 -0.0881254C7.66634 0.0790468 7.58333 0.298107 7.58333 0.571347V4.3748ZM11.3418 4.3748H13.1692V0.571347C13.1692 0.298107 13.0862 0.0790468 12.919 -0.0881254C12.753 -0.254145 12.5339 -0.337158 12.2607 -0.337158C11.9886 -0.337158 11.7673 -0.254145 11.5966 -0.0881254C11.426 0.0790468 11.3418 0.298107 11.3418 0.571347V4.3748ZM15.1107 4.3748H16.9381V0.571347C16.9381 0.298107 16.8539 0.0790468 16.6833 -0.0881254C16.5126 -0.254145 16.2913 -0.337158 16.0192 -0.337158C15.746 -0.337158 15.5269 -0.254145 15.3609 -0.0881254C15.1937 0.0790468 15.1107 0.298107 15.1107 0.571347V4.3748ZM19.7765 7.20175V9.0291H23.58C23.8532 9.0291 24.0746 8.94377 24.2441 8.77314C24.4147 8.60366 24.5 8.38232 24.5 8.10908C24.5 7.83699 24.4147 7.61795 24.2441 7.45078C24.0746 7.28476 23.8532 7.20175 23.58 7.20175H19.7765ZM19.7765 10.9591V12.7876H23.58C23.8532 12.7876 24.0746 12.7034 24.2441 12.5374C24.4147 12.3714 24.5 12.1512 24.5 11.8791C24.5 11.6058 24.4147 11.3845 24.2441 11.215C24.0746 11.0444 23.8532 10.9591 23.58 10.9591H19.7765ZM19.7765 14.7291V16.5565H23.58C23.8532 16.5565 24.0746 16.4712 24.2441 16.3005C24.4147 16.131 24.5 15.9097 24.5 15.6364C24.5 15.3643 24.4147 15.1453 24.2441 14.9781C24.0746 14.8121 23.8532 14.7291 23.58 14.7291H19.7765ZM16.9611 19.4065H15.1337V23.2214C15.1337 23.4935 15.2191 23.7126 15.3886 23.8798C15.5592 24.0458 15.7805 24.1288 16.0526 24.1288C16.3259 24.1288 16.5449 24.0458 16.7121 23.8798C16.8781 23.7126 16.9611 23.4935 16.9611 23.2214V19.4065ZM13.1692 19.4065H11.3418V23.2214C11.3418 23.4935 11.426 23.7126 11.5966 23.8798C11.7673 24.0458 11.9886 24.1288 12.2607 24.1288C12.5339 24.1288 12.753 24.0458 12.919 23.8798C13.0862 23.7126 13.1692 23.4935 13.1692 23.2214V19.4065ZM9.41185 19.4065H7.58333V23.2214C7.58333 23.4935 7.66634 23.7126 7.83351 23.8798C7.99953 24.0458 8.21974 24.1288 8.49182 24.1288C8.76391 24.1288 8.98527 24.0458 9.1559 23.8798C9.32653 23.7126 9.41185 23.4935 9.41185 23.2214V19.4065ZM4.74486 16.568V14.7395H0.702755C0.430667 14.7395 0.211615 14.8236 0.044443 14.9896C-0.121576 15.1557 -0.20459 15.3759 -0.20459 15.648C-0.20459 15.9212 -0.121576 16.1426 0.044443 16.312C0.211615 16.4827 0.430667 16.568 0.702755 16.568H4.74486ZM4.74486 12.798V10.9706H0.702755C0.430667 10.9706 0.211615 11.0559 0.044443 11.2266C-0.121576 11.396 -0.20459 11.6174 -0.20459 11.8906C-0.20459 12.1627 -0.121576 12.3818 0.044443 12.549C0.211615 12.715 0.430667 12.798 0.702755 12.798H4.74486ZM4.74486 9.04064V7.21213H0.702755C0.430667 7.21213 0.211615 7.29627 0.044443 7.46229C-0.121576 7.62946 -0.20459 7.84853 -0.20459 8.12062C-0.20459 8.39386 -0.121576 8.6152 0.044443 8.78468C0.211615 8.95531 0.430667 9.04064 0.702755 9.04064H4.74486Z"
    fill="white" fill-opacity="0.8" />
  <path fill-rule="evenodd" clip-rule="evenodd"
    d="M7.71199 8.55652C7.15326 8.55652 6.6808 8.65961 6.30922 8.88209C5.91401 9.11653 5.72453 9.50004 5.72453 9.98999V13.5463C5.72453 14.0127 5.89805 14.3871 6.25894 14.6354C6.60672 14.8748 7.1038 14.9797 7.71988 14.9797C8.2977 14.9797 8.78256 14.8799 9.15931 14.6636C9.56868 14.4259 9.77043 14.0407 9.77043 13.5463V12.8569C9.77043 12.386 9.66408 12 9.39942 11.7574C9.14042 11.5199 8.74577 11.4235 8.26406 11.4235H7.65678C7.53277 11.4235 7.42834 11.4846 7.36729 11.5907C7.31565 11.6804 7.30188 11.7898 7.30188 11.8935C7.30188 11.9971 7.31565 12.1065 7.36729 12.1962C7.42834 12.3023 7.53277 12.3634 7.65678 12.3634H8.26406C8.39276 12.3634 8.48764 12.3757 8.55422 12.3949C8.62107 12.4141 8.64593 12.4364 8.65422 12.4467L8.65802 12.4511C8.70052 12.5008 8.74515 12.6186 8.74515 12.8569V13.6246C8.74515 13.6932 8.72883 13.7443 8.70205 13.7852C8.67463 13.8271 8.62873 13.8698 8.55261 13.9086C8.39465 13.9891 8.13267 14.0397 7.74354 14.0397C7.35714 14.0397 7.09733 13.9891 6.94085 13.9088C6.86549 13.8702 6.81998 13.8276 6.79274 13.7857C6.76609 13.7447 6.7498 13.6934 6.7498 13.6246V9.91166C6.7498 9.84104 6.76583 9.78847 6.79154 9.74698C6.81755 9.70499 6.86035 9.66333 6.93047 9.62561C7.07661 9.54698 7.32111 9.4965 7.68833 9.4965C8.05554 9.4965 8.30005 9.54698 8.44619 9.62561C8.5163 9.66333 8.5591 9.70499 8.58512 9.74698C8.61083 9.78847 8.62685 9.84104 8.62685 9.91166V10.4208C8.62685 10.5512 8.69109 10.6609 8.80461 10.7257C8.90169 10.7811 9.0219 10.7968 9.13949 10.7968C9.25708 10.7968 9.3773 10.7811 9.47438 10.7257C9.5879 10.6609 9.65213 10.5512 9.65213 10.4208V9.98999C9.65213 9.52604 9.48513 9.15186 9.13389 8.90245C8.79484 8.6617 8.31052 8.55652 7.71199 8.55652ZM12.1805 8.55652C11.6423 8.55652 11.1886 8.6598 10.8365 8.88473C10.4577 9.12115 10.2797 9.50463 10.2797 9.98999V14.5254C10.2797 14.6558 10.344 14.7655 10.4575 14.8303C10.5546 14.8857 10.6748 14.9014 10.7924 14.9014C10.91 14.9014 11.0302 14.8857 11.1273 14.8303C11.2408 14.7655 11.305 14.6558 11.305 14.5254V12.6063C11.3602 12.6469 11.4277 12.6689 11.5022 12.6689H12.1883C12.7262 12.6689 13.1794 12.5684 13.5313 12.3492L13.5333 12.3479C13.9109 12.1064 14.089 11.7213 14.089 11.2355V9.98999C14.089 9.50345 13.9075 9.12014 13.5238 8.88433C13.1717 8.65968 12.7183 8.55652 12.1805 8.55652ZM11.5022 11.729C11.4277 11.729 11.3602 11.751 11.305 11.7916V9.91166C11.305 9.77859 11.3562 9.69043 11.4741 9.62329C11.6084 9.54678 11.8353 9.4965 12.1805 9.4965C12.5284 9.4965 12.7575 9.54681 12.8933 9.6236C13.0126 9.69106 13.0638 9.7793 13.0638 9.91166V11.3138C13.0638 11.4469 13.0126 11.535 12.8947 11.6022C12.7604 11.6787 12.5335 11.729 12.1883 11.729H11.5022ZM15.0298 8.63485C14.9143 8.63485 14.7953 8.65062 14.6989 8.70704C14.5864 8.77296 14.525 8.88284 14.525 9.01084V13.5463C14.525 14.0127 14.6986 14.3871 15.0594 14.6354C15.4072 14.8748 15.9043 14.9797 16.5204 14.9797C17.0982 14.9797 17.5831 14.8799 17.9598 14.6636C18.3692 14.4259 18.5709 14.0407 18.5709 13.5463V9.01084C18.5709 8.88043 18.5067 8.77078 18.3932 8.70595C18.2961 8.65051 18.1759 8.63485 18.0583 8.63485C17.9407 8.63485 17.8205 8.65051 17.7234 8.70595C17.6099 8.77078 17.5457 8.88043 17.5457 9.01084V13.6246C17.5457 13.6932 17.5293 13.7443 17.5026 13.7852C17.4751 13.8271 17.4292 13.8698 17.3531 13.9086C17.1952 13.9891 16.9332 14.0397 16.544 14.0397C16.1577 14.0397 15.8978 13.9891 15.7414 13.9088C15.666 13.8702 15.6205 13.8276 15.5932 13.7857C15.5666 13.7447 15.5503 13.6931 15.5503 13.6243L15.5424 9.01084C15.5424 8.88043 15.4782 8.77078 15.3647 8.70595C15.2676 8.65051 15.1474 8.63485 15.0298 8.63485Z"
    fill="white" fill-opacity="0.8" />
</svg>