<svg width="25" height="25" viewBox="0 0 25 25" fill="none" xmlns="http://www.w3.org/2000/svg">
  <path d="M5.4375 6.18924C5.13672 6.18924 4.89062 6.44036 4.89062 6.74728V12.3974C5.06494 12.352 5.24951 12.3276 5.4375 12.3276H18.5625C18.7505 12.3276 18.935 12.352 19.1093 12.3974V6.74728C19.1093 6.44036 18.8633 6.18924 18.5625 6.18924H5.4375ZM4.89062 14.5598V17.908C4.89062 18.2149 5.13672 18.466 5.4375 18.466H18.5625C18.8633 18.466 19.1093 18.2149 19.1093 17.908V14.5598C19.1093 14.2528 18.8633 14.0017 18.5625 14.0017H5.4375C5.13672 14.0017 4.89062 14.2528 4.89062 14.5598ZM3.25 14.5598V6.74728C3.25 5.51611 4.23096 4.51514 5.4375 4.51514H18.5625C19.769 4.51514 20.75 5.51611 20.75 6.74728V14.5598V17.908C20.75 19.1391 19.769 20.1401 18.5625 20.1401H5.4375C4.23096 20.1401 3.25 19.1391 3.25 17.908V14.5598ZM12.8203 16.2339C12.8203 16.0119 12.9067 15.799 13.0606 15.642C13.2144 15.485 13.423 15.3968 13.6406 15.3968C13.8582 15.3968 14.0668 15.485 14.2207 15.642C14.3745 15.799 14.4609 16.0119 14.4609 16.2339C14.4609 16.4559 14.3745 16.6688 14.2207 16.8257C14.0668 16.9827 13.8582 17.0709 13.6406 17.0709C13.423 17.0709 13.2144 16.9827 13.0606 16.8257C12.9067 16.6688 12.8203 16.4559 12.8203 16.2339ZM16.9218 15.3968C17.1394 15.3968 17.3481 15.485 17.5019 15.642C17.6557 15.799 17.7422 16.0119 17.7422 16.2339C17.7422 16.4559 17.6557 16.6688 17.5019 16.8257C17.3481 16.9827 17.1394 17.0709 16.9218 17.0709C16.7043 17.0709 16.4956 16.9827 16.3418 16.8257C16.188 16.6688 16.1015 16.4559 16.1015 16.2339C16.1015 16.0119 16.188 15.799 16.3418 15.642C16.4956 15.485 16.7043 15.3968 16.9218 15.3968Z" fill="white" fill-opacity="0.8"></path>
</svg>