<svg width="25" height="25" viewBox="0 0 25 25" fill="none" xmlns="http://www.w3.org/2000/svg">
  <path d="M3.6632 20.4366H21.337C22.5584 20.4366 23.4741 20.1357 24.0842 19.5327C24.6955 18.9298 25 18.0259 25 16.8211V8.33891C25 7.13411 24.6955 6.23022 24.0842 5.62723C23.4741 5.02424 22.5584 4.72333 21.337 4.72333H3.6632C2.44217 4.72333 1.52631 5.02424 0.915861 5.62723C0.305288 6.23022 0 7.13411 0 8.33891V16.8211C0 18.0259 0.305288 18.9298 0.915861 19.5327C1.52631 20.1357 2.44217 20.4366 3.6632 20.4366ZM3.68654 18.559C3.10321 18.559 2.656 18.405 2.34491 18.0981C2.03382 17.7913 1.87828 17.334 1.87828 16.7275V8.43251C1.87828 7.82597 2.03382 7.36867 2.34491 7.06185C2.656 6.75502 3.10321 6.60104 3.68654 6.60104H21.3145C21.889 6.60104 22.3345 6.75502 22.6496 7.06185C22.9647 7.36867 23.1223 7.82597 23.1223 8.43251V16.7275C23.1223 17.334 22.9647 17.7913 22.6496 18.0981C22.3345 18.405 21.889 18.559 21.3145 18.559H3.68654ZM4.02487 3.12523H5.90303V1.14214C5.90303 0.861375 5.8156 0.63389 5.64063 0.45856C5.46565 0.284416 5.23809 0.196777 4.95815 0.196777C4.6781 0.196777 4.45265 0.284416 4.28147 0.45856C4.1104 0.63389 4.02487 0.861375 4.02487 1.14214V3.12523ZM7.79303 3.12523H9.67166V1.14214C9.67166 0.861375 9.584 0.63389 9.40867 0.45856C9.23334 0.284416 9.00589 0.196777 8.72631 0.196777C8.44626 0.196777 8.22069 0.284416 8.04963 0.45856C7.87856 0.63389 7.79303 0.861375 7.79303 1.14214V3.12523ZM11.5612 3.12523H13.4389V1.14214C13.4389 0.861375 13.3524 0.63389 13.1771 0.45856C13.0017 0.284416 12.7743 0.196777 12.4947 0.196777C12.2139 0.196777 11.9889 0.284416 11.8183 0.45856C11.6465 0.63389 11.5612 0.861375 11.5612 1.14214V3.12523ZM15.3296 3.12523H17.2073V1.14214C17.2073 0.861375 17.122 0.63389 16.9514 0.45856C16.7796 0.284416 16.5545 0.196777 16.2738 0.196777C15.9942 0.196777 15.7667 0.284416 15.5914 0.45856C15.4173 0.63389 15.3296 0.861375 15.3296 1.14214V3.12523ZM19.098 3.12523H20.9757V1.14214C20.9757 0.861375 20.8904 0.63389 20.7186 0.45856C20.548 0.284416 20.3229 0.196777 20.0422 0.196777C19.7626 0.196777 19.5351 0.284416 19.3598 0.45856C19.1845 0.63389 19.098 0.861375 19.098 1.14214V3.12523ZM4.02487 22.0359V24.019C4.02487 24.2986 4.1104 24.5261 4.28147 24.7014C4.45265 24.8767 4.6781 24.9632 4.95815 24.9632C5.23809 24.9632 5.46565 24.8767 5.64063 24.7014C5.8156 24.5261 5.90303 24.2986 5.90303 24.019V22.0359H4.02487ZM7.79303 22.0359V24.019C7.79303 24.2986 7.87856 24.5261 8.04963 24.7014C8.22069 24.8767 8.44626 24.9632 8.72631 24.9632C9.00589 24.9632 9.23334 24.8767 9.40867 24.7014C9.584 24.5261 9.67166 24.2986 9.67166 24.019V22.0359H7.79303ZM11.5612 22.0359V24.019C11.5612 24.2986 11.6465 24.5261 11.8183 24.7014C11.9889 24.8767 12.2139 24.9632 12.4947 24.9632C12.7743 24.9632 13.0017 24.8767 13.1771 24.7014C13.3524 24.5261 13.4389 24.2986 13.4389 24.019V22.0359H11.5612ZM15.3296 22.0359V24.019C15.3296 24.2986 15.4173 24.5261 15.5914 24.7014C15.7667 24.8767 15.9942 24.9632 16.2738 24.9632C16.5545 24.9632 16.7796 24.8767 16.9514 24.7014C17.122 24.5261 17.2073 24.2986 17.2073 24.019V22.0359H15.3296ZM19.098 22.0359V24.019C19.098 24.2986 19.1845 24.5261 19.3598 24.7014C19.5351 24.8767 19.7626 24.9632 20.0422 24.9632C20.3229 24.9632 20.548 24.8767 20.7186 24.7014C20.8904 24.5261 20.9757 24.2986 20.9757 24.019V22.0359H19.098Z" fill="white" fill-opacity="0.8"></path>
</svg>