<svg width="25" height="25" viewBox="0 0 25 25" fill="none" xmlns="http://www.w3.org/2000/svg">
  <path d="M7.53831 22.3154H17.4617C17.6859 22.3154 17.8756 22.238 18.0305 22.0823C18.1856 21.9276 18.2631 21.7417 18.2631 21.5237C18.2631 21.2997 18.1856 21.1078 18.0305 20.95C17.8756 20.7913 17.6859 20.7129 17.4617 20.7129H7.53831C7.3207 20.7129 7.13272 20.7913 6.97438 20.95C6.81605 21.1078 6.73698 21.2997 6.73698 21.5237C6.73698 21.7417 6.81605 21.9276 6.97438 22.0823C7.13272 22.238 7.3207 22.3154 7.53831 22.3154ZM2.69044 18.9708H22.3195C23.1637 18.9708 23.797 18.7639 24.2191 18.3479C24.6412 17.932 24.8523 17.293 24.8523 16.429V5.09021C24.8523 4.22618 24.6412 3.5862 24.2191 3.17127C23.797 2.75533 23.1637 2.54736 22.3195 2.54736H2.69044C1.84621 2.54736 1.21136 2.75533 0.785876 3.17127C0.360496 3.5862 0.147705 4.22618 0.147705 5.09021V16.429C0.147705 17.293 0.360496 17.932 0.785876 18.3479C1.21136 18.7639 1.84621 18.9708 2.69044 18.9708ZM2.72008 17.3784C2.37708 17.3784 2.12813 17.3021 1.9731 17.1503C1.81818 16.9986 1.74062 16.7485 1.74062 16.3989V5.11032C1.74062 4.76672 1.81818 4.51956 1.9731 4.36785C2.12813 4.21614 2.37708 4.14078 2.72008 4.14078H22.2898C22.6262 4.14078 22.8719 4.21614 23.0269 4.36785C23.1819 4.51956 23.2594 4.76672 23.2594 5.11032V16.3989C23.2594 16.7485 23.1819 16.9986 23.0269 17.1503C22.8719 17.3021 22.6262 17.3784 22.2898 17.3784H2.72008Z" fill="white" fill-opacity="0.8"></path>
</svg>